<mxfile host="app.diagrams.net" modified="2022-03-16T01:43:15.721Z" agent="5.0 (Macintosh; Intel Mac OS X 10_15_7) AppleWebKit/537.36 (KHTML, like Gecko) Chrome/98.0.4758.102 Safari/537.36" etag="oF6c4c56zZ5tl4quPj-i" version="17.1.2" type="github">
  <diagram id="5-Wv-0_HizCJLyHvhbQR" name="第 1 页">
    <mxGraphModel dx="1298" dy="657" grid="1" gridSize="10" guides="1" tooltips="1" connect="1" arrows="1" fold="1" page="1" pageScale="1" pageWidth="827" pageHeight="1169" math="0" shadow="0">
      <root>
        <mxCell id="0" />
        <mxCell id="1" parent="0" />
        <mxCell id="rO3YZYDNpyzsbpPMsROB-5" value="" style="whiteSpace=wrap;html=1;aspect=fixed;" vertex="1" parent="1">
          <mxGeometry x="110" y="110" width="630" height="630" as="geometry" />
        </mxCell>
        <mxCell id="rO3YZYDNpyzsbpPMsROB-6" value="" style="endArrow=none;html=1;rounded=0;" edge="1" parent="1">
          <mxGeometry width="50" height="50" relative="1" as="geometry">
            <mxPoint x="110" y="250" as="sourcePoint" />
            <mxPoint x="740" y="250" as="targetPoint" />
          </mxGeometry>
        </mxCell>
        <mxCell id="rO3YZYDNpyzsbpPMsROB-10" value="" style="endArrow=none;html=1;rounded=0;entryX=0;entryY=0;entryDx=0;entryDy=0;" edge="1" parent="1" target="rO3YZYDNpyzsbpPMsROB-5">
          <mxGeometry width="50" height="50" relative="1" as="geometry">
            <mxPoint x="420" y="250" as="sourcePoint" />
            <mxPoint x="430" y="320" as="targetPoint" />
          </mxGeometry>
        </mxCell>
        <mxCell id="rO3YZYDNpyzsbpPMsROB-13" value="" style="endArrow=none;html=1;rounded=0;exitX=0.989;exitY=0.002;exitDx=0;exitDy=0;exitPerimeter=0;" edge="1" parent="1" source="rO3YZYDNpyzsbpPMsROB-5">
          <mxGeometry width="50" height="50" relative="1" as="geometry">
            <mxPoint x="380" y="420" as="sourcePoint" />
            <mxPoint x="420" y="250" as="targetPoint" />
          </mxGeometry>
        </mxCell>
        <mxCell id="rO3YZYDNpyzsbpPMsROB-16" value="是否自动生成相对方主体编码" style="text;html=1;strokeColor=none;fillColor=none;align=center;verticalAlign=middle;whiteSpace=wrap;rounded=0;" vertex="1" parent="1">
          <mxGeometry x="361" y="160" width="106" height="30" as="geometry" />
        </mxCell>
        <mxCell id="rO3YZYDNpyzsbpPMsROB-18" value="" style="endArrow=none;html=1;rounded=0;exitX=0.5;exitY=1;exitDx=0;exitDy=0;" edge="1" parent="1" source="rO3YZYDNpyzsbpPMsROB-5">
          <mxGeometry width="50" height="50" relative="1" as="geometry">
            <mxPoint x="380" y="470" as="sourcePoint" />
            <mxPoint x="420" y="250" as="targetPoint" />
          </mxGeometry>
        </mxCell>
        <mxCell id="rO3YZYDNpyzsbpPMsROB-19" value="TRUE" style="text;html=1;strokeColor=none;fillColor=none;align=center;verticalAlign=middle;whiteSpace=wrap;rounded=0;" vertex="1" parent="1">
          <mxGeometry x="160" y="190" width="80" height="40" as="geometry" />
        </mxCell>
        <mxCell id="rO3YZYDNpyzsbpPMsROB-20" value="FALSE" style="text;html=1;strokeColor=none;fillColor=none;align=center;verticalAlign=middle;whiteSpace=wrap;rounded=0;" vertex="1" parent="1">
          <mxGeometry x="610" y="195" width="80" height="35" as="geometry" />
        </mxCell>
        <mxCell id="rO3YZYDNpyzsbpPMsROB-21" value="" style="endArrow=none;html=1;rounded=0;exitX=-0.002;exitY=0.397;exitDx=0;exitDy=0;exitPerimeter=0;" edge="1" parent="1" source="rO3YZYDNpyzsbpPMsROB-5">
          <mxGeometry width="50" height="50" relative="1" as="geometry">
            <mxPoint x="380" y="470" as="sourcePoint" />
            <mxPoint x="420" y="360" as="targetPoint" />
          </mxGeometry>
        </mxCell>
        <mxCell id="rO3YZYDNpyzsbpPMsROB-22" value="" style="endArrow=none;html=1;rounded=0;exitX=0;exitY=0.556;exitDx=0;exitDy=0;exitPerimeter=0;" edge="1" parent="1" source="rO3YZYDNpyzsbpPMsROB-5">
          <mxGeometry width="50" height="50" relative="1" as="geometry">
            <mxPoint x="380" y="470" as="sourcePoint" />
            <mxPoint x="300" y="460" as="targetPoint" />
          </mxGeometry>
        </mxCell>
        <mxCell id="rO3YZYDNpyzsbpPMsROB-23" value="" style="endArrow=none;html=1;rounded=0;exitX=0.305;exitY=1.003;exitDx=0;exitDy=0;exitPerimeter=0;" edge="1" parent="1" source="rO3YZYDNpyzsbpPMsROB-5">
          <mxGeometry width="50" height="50" relative="1" as="geometry">
            <mxPoint x="380" y="470" as="sourcePoint" />
            <mxPoint x="300" y="360" as="targetPoint" />
          </mxGeometry>
        </mxCell>
        <mxCell id="rO3YZYDNpyzsbpPMsROB-24" value="" style="endArrow=none;html=1;rounded=0;" edge="1" parent="1">
          <mxGeometry width="50" height="50" relative="1" as="geometry">
            <mxPoint x="300" y="360" as="sourcePoint" />
            <mxPoint x="420" y="250" as="targetPoint" />
          </mxGeometry>
        </mxCell>
        <mxCell id="rO3YZYDNpyzsbpPMsROB-25" value="" style="endArrow=none;html=1;rounded=0;" edge="1" parent="1">
          <mxGeometry width="50" height="50" relative="1" as="geometry">
            <mxPoint x="110" y="250" as="sourcePoint" />
            <mxPoint x="300" y="360" as="targetPoint" />
          </mxGeometry>
        </mxCell>
        <mxCell id="rO3YZYDNpyzsbpPMsROB-26" value="是否自动生成相对方属性编码" style="text;html=1;strokeColor=none;fillColor=none;align=center;verticalAlign=middle;whiteSpace=wrap;rounded=0;" vertex="1" parent="1">
          <mxGeometry x="220" y="270" width="90" height="50" as="geometry" />
        </mxCell>
        <mxCell id="rO3YZYDNpyzsbpPMsROB-27" value="TRUE" style="text;html=1;strokeColor=none;fillColor=none;align=center;verticalAlign=middle;whiteSpace=wrap;rounded=0;" vertex="1" parent="1">
          <mxGeometry x="130" y="320" width="60" height="30" as="geometry" />
        </mxCell>
        <mxCell id="rO3YZYDNpyzsbpPMsROB-28" value="FALSE" style="text;html=1;strokeColor=none;fillColor=none;align=center;verticalAlign=middle;whiteSpace=wrap;rounded=0;" vertex="1" parent="1">
          <mxGeometry x="330" y="320" width="70" height="30" as="geometry" />
        </mxCell>
        <mxCell id="rO3YZYDNpyzsbpPMsROB-29" value="无" style="text;html=1;strokeColor=none;fillColor=none;align=center;verticalAlign=middle;whiteSpace=wrap;rounded=0;" vertex="1" parent="1">
          <mxGeometry x="540" y="450" width="100" height="70" as="geometry" />
        </mxCell>
        <mxCell id="rO3YZYDNpyzsbpPMsROB-30" value="无" style="text;html=1;strokeColor=none;fillColor=none;align=center;verticalAlign=middle;whiteSpace=wrap;rounded=0;" vertex="1" parent="1">
          <mxGeometry x="321" y="510" width="79" height="40" as="geometry" />
        </mxCell>
        <mxCell id="rO3YZYDNpyzsbpPMsROB-31" value="" style="endArrow=none;html=1;rounded=0;" edge="1" parent="1">
          <mxGeometry width="50" height="50" relative="1" as="geometry">
            <mxPoint x="240" y="460" as="sourcePoint" />
            <mxPoint x="300" y="360" as="targetPoint" />
          </mxGeometry>
        </mxCell>
        <mxCell id="rO3YZYDNpyzsbpPMsROB-32" value="" style="endArrow=none;html=1;rounded=0;" edge="1" parent="1">
          <mxGeometry width="50" height="50" relative="1" as="geometry">
            <mxPoint x="110" y="360" as="sourcePoint" />
            <mxPoint x="240" y="460" as="targetPoint" />
          </mxGeometry>
        </mxCell>
        <mxCell id="rO3YZYDNpyzsbpPMsROB-33" value="" style="endArrow=none;html=1;rounded=0;exitX=0.214;exitY=1.003;exitDx=0;exitDy=0;exitPerimeter=0;" edge="1" parent="1" source="rO3YZYDNpyzsbpPMsROB-5">
          <mxGeometry width="50" height="50" relative="1" as="geometry">
            <mxPoint x="220" y="560" as="sourcePoint" />
            <mxPoint x="240" y="460" as="targetPoint" />
          </mxGeometry>
        </mxCell>
        <mxCell id="rO3YZYDNpyzsbpPMsROB-34" value="是否存在&lt;br&gt;附属信息" style="text;html=1;strokeColor=none;fillColor=none;align=center;verticalAlign=middle;whiteSpace=wrap;rounded=0;" vertex="1" parent="1">
          <mxGeometry x="180" y="370" width="80" height="40" as="geometry" />
        </mxCell>
        <mxCell id="rO3YZYDNpyzsbpPMsROB-35" value="TRUE" style="text;html=1;strokeColor=none;fillColor=none;align=center;verticalAlign=middle;whiteSpace=wrap;rounded=0;" vertex="1" parent="1">
          <mxGeometry x="120" y="420" width="60" height="30" as="geometry" />
        </mxCell>
        <mxCell id="rO3YZYDNpyzsbpPMsROB-36" value="FALSE" style="text;html=1;strokeColor=none;fillColor=none;align=center;verticalAlign=middle;whiteSpace=wrap;rounded=0;" vertex="1" parent="1">
          <mxGeometry x="250" y="420" width="60" height="30" as="geometry" />
        </mxCell>
        <mxCell id="rO3YZYDNpyzsbpPMsROB-37" value="&amp;nbsp;保存主体&lt;br&gt;信息&lt;br&gt;&lt;br&gt;保存属性&lt;br&gt;信息&lt;br&gt;&lt;br&gt;保存附属&lt;br&gt;信息" style="text;html=1;strokeColor=none;fillColor=none;align=center;verticalAlign=middle;whiteSpace=wrap;rounded=0;" vertex="1" parent="1">
          <mxGeometry x="140" y="510" width="70" height="190" as="geometry" />
        </mxCell>
        <mxCell id="rO3YZYDNpyzsbpPMsROB-38" value="保存&lt;br&gt;基础&lt;br&gt;信息" style="text;html=1;strokeColor=none;fillColor=none;align=center;verticalAlign=middle;whiteSpace=wrap;rounded=0;" vertex="1" parent="1">
          <mxGeometry x="250" y="540" width="50" height="140" as="geometry" />
        </mxCell>
      </root>
    </mxGraphModel>
  </diagram>
</mxfile>
